<svg width="56" height="56" viewBox="0 0 56 56" fill="none" xmlns="http://www.w3.org/2000/svg">
<g clip-path="url(#clip0_10_254)">
<path d="M35.4667 35.5609V27.0666C35.4667 25.5229 34.2104 24.2666 32.6667 24.2666H6.53333C4.9896 24.2666 3.73333 25.5229 3.73333 27.0666V35.5609C1.60627 35.9949 0 37.8802 0 40.1333V45.7333V55.0666C0 55.5818 0.418133 55.9999 0.933333 55.9999H4.66667C5.18187 55.9999 5.6 55.5818 5.6 55.0666V52.2666H33.6V55.0666C33.6 55.5818 34.0181 55.9999 34.5333 55.9999H38.2667C38.7819 55.9999 39.2 55.5818 39.2 55.0666V45.7333V40.1333C39.2 37.8802 37.5937 35.9949 35.4667 35.5609ZM5.6 27.0666C5.6 26.5523 6.01907 26.1333 6.53333 26.1333H32.6667C33.1809 26.1333 33.6 26.5523 33.6 27.0666V35.4666H31.7333V31.7333C31.7333 30.1895 30.4771 28.9333 28.9333 28.9333H23.3333C21.7896 28.9333 20.5333 30.1895 20.5333 31.7333V35.4666H18.6667V31.7333C18.6667 30.1895 17.4104 28.9333 15.8667 28.9333H10.2667C8.72293 28.9333 7.46667 30.1895 7.46667 31.7333V35.4666H5.6V27.0666ZM29.8667 31.7333V35.4666H22.4V31.7333C22.4 31.219 22.8191 30.7999 23.3333 30.7999H28.9333C29.4476 30.7999 29.8667 31.219 29.8667 31.7333ZM16.8 31.7333V35.4666H9.33333V31.7333C9.33333 31.219 9.7524 30.7999 10.2667 30.7999H15.8667C16.3809 30.7999 16.8 31.219 16.8 31.7333ZM37.3333 54.1333H35.4667V51.3333C35.4667 50.8181 35.0485 50.3999 34.5333 50.3999H4.66667C4.15147 50.3999 3.73333 50.8181 3.73333 51.3333V54.1333H1.86667V46.6666H37.3333V54.1333ZM37.3333 44.7999H1.86667V40.1333C1.86667 38.5895 3.12293 37.3333 4.66667 37.3333H8.4H17.7333H21.4667H30.8H34.5333C36.0771 37.3333 37.3333 38.5895 37.3333 40.1333V44.7999Z" fill="#B58C56"/>
<path d="M55.0667 35.4666H42C41.4848 35.4666 41.0667 35.8847 41.0667 36.3999V43.8666V50.3999H42.9333V44.7999H54.1333V50.3999H56V43.8666V36.3999C56 35.8847 55.5819 35.4666 55.0667 35.4666ZM54.1333 42.9332H42.9333V37.3332H54.1333V42.9332Z" fill="#B58C56"/>
<path d="M50.4 39.2H46.6666V41.0666H50.4V39.2Z" fill="#B58C56"/>
<path d="M53.1524 27.704L51.2857 22.104C51.1579 21.7232 50.8023 21.4666 50.4 21.4666H46.6667C46.2644 21.4666 45.9088 21.7232 45.7809 22.105L43.9143 27.705C43.8191 27.9896 43.8676 28.3023 44.0431 28.5459C44.2185 28.7895 44.5004 28.9332 44.8 28.9332H47.6V31.7332H45.7333V33.5999H51.3333V31.7332H49.4667V28.9332H52.2667C52.5663 28.9332 52.8481 28.7895 53.0236 28.545C53.1991 28.3014 53.2467 27.9887 53.1524 27.704ZM46.0945 27.0666L47.3396 23.3332H49.728L50.9721 27.0666H46.0945Z" fill="#B58C56"/>
<path d="M55.4484 12.2145L28.3817 0.0812C28.1381 -0.0270667 27.8609 -0.0270667 27.6183 0.0812L0.5516 12.2145C0.2156 12.3657 0 12.6989 0 13.0667V24.2667H1.86667V13.6705L28 1.95627L54.1333 13.6715V24.2667H56V13.0667C56 12.6989 55.7844 12.3657 55.4484 12.2145Z" fill="#B58C56"/>
<path d="M34.4428 12.9116L32.6013 13.2215C32.6452 13.4763 32.6667 13.7376 32.6667 13.9999C32.6667 16.5731 30.5732 18.6666 28 18.6666C25.4268 18.6666 23.3333 16.5731 23.3333 13.9999C23.3333 11.4267 25.4268 9.33322 28 9.33322C28.5339 9.33322 29.0584 9.42282 29.5568 9.59922L30.1784 7.83895C29.4793 7.59162 28.7467 7.46655 28 7.46655C24.3973 7.46655 21.4667 10.3972 21.4667 13.9999C21.4667 17.6026 24.3973 20.5332 28 20.5332C31.6027 20.5332 34.5333 17.6026 34.5333 13.9999C34.5333 13.634 34.5025 13.2682 34.4428 12.9116Z" fill="#B58C56"/>
<path d="M33.8735 7.74023L28 13.6137L26.7932 12.4069L25.4735 13.7266L27.3402 15.5933C27.5222 15.7753 27.7611 15.8668 28 15.8668C28.239 15.8668 28.4779 15.7753 28.6599 15.5933L35.1932 9.05997L33.8735 7.74023Z" fill="#B58C56"/>
</g>
<defs>
<clipPath id="clip0_10_254">
<rect width="56" height="56" fill="white"/>
</clipPath>
</defs>
</svg>
