<svg width="56" height="56" viewBox="0 0 56 56" fill="none" xmlns="http://www.w3.org/2000/svg">
<g clip-path="url(#clip0_10_307)">
<path d="M18.0646 12.6452C18.0646 11.1513 16.8489 9.93555 15.3549 9.93555C13.861 9.93555 12.6453 11.1513 12.6453 12.6452C12.6453 14.1392 13.861 15.3549 15.3549 15.3549C16.8489 15.3549 18.0646 14.1392 18.0646 12.6452ZM15.3549 13.5484C14.8564 13.5484 14.4517 13.1429 14.4517 12.6452C14.4517 12.1475 14.8564 11.742 15.3549 11.742C15.8535 11.742 16.2582 12.1475 16.2582 12.6452C16.2582 13.1429 15.8535 13.5484 15.3549 13.5484Z" fill="#B58C56"/>
<path d="M56 16.2581C56 7.29355 48.7065 0 39.7419 0C33.5268 0 27.9395 3.49187 25.1964 8.988C22.9455 7.32155 20.1708 6.32258 17.1613 6.32258H13.5484C6.07781 6.32258 0 12.4004 0 19.871C0 21.047 0.757806 22.0405 1.80645 22.4145V22.5806C1.80645 23.753 2.02142 24.8938 2.42155 25.9867C2.03316 26.5621 1.80645 27.2548 1.80645 28C1.80645 29.9925 3.42684 31.6129 5.41935 31.6129H5.70297C6.42916 34.6107 8.52103 37.1506 11.4412 38.4025L11.7419 38.5307V39.9262L9.80361 40.3742L9.56155 39.5685C9.34387 38.8423 8.82723 38.2363 8.14439 37.9066C7.46065 37.576 6.6631 37.548 5.96039 37.8316L4.24787 38.5163L2.67355 33.1656L0.941161 33.675L3.64632 42.8725C1.35935 44.7494 0 47.5621 0 50.54V56H30.7097V50.54C30.7097 45.8866 27.5421 41.9052 23.0079 40.8592L18.9677 39.9271L18.9686 38.5316L19.2676 38.4025C22.1886 37.1506 24.2805 34.6116 25.0067 31.6129H25.2903C27.1645 31.6129 28.691 30.1741 28.868 28.3459C31.827 31.0222 35.653 32.5161 39.7419 32.5161C48.7065 32.5161 56 25.2226 56 16.2581ZM13.5484 8.12903H17.1613C23.6356 8.12903 28.9032 13.3966 28.9032 19.871C28.9032 20.3686 28.4986 20.7742 28 20.7742H26.8168C25.452 17.5072 22.2591 15.3548 18.6751 15.3548H15.3548H12.0346C8.44968 15.3548 5.25768 17.5072 3.8929 20.7742H2.70968C2.2111 20.7742 1.80645 20.3686 1.80645 19.871C1.80645 13.3966 7.07406 8.12903 13.5484 8.12903ZM31.4765 9.26981L32.7157 10.509L33.9929 9.23187L32.7555 7.99445C34.4445 6.57097 36.5572 5.65239 38.8387 5.4591V7.22581H40.6452V5.46542C42.9556 5.65781 45.0601 6.57277 46.7338 7.98993L45.491 9.23277L46.7681 10.5099L48.011 9.2671C49.4281 10.9399 50.3431 13.0453 50.5355 15.3557H48.7742V17.1622H50.5346C50.3422 19.4726 49.4272 21.5772 48.0101 23.2508L46.7672 22.008L45.4901 23.2852L46.7329 24.528C45.0601 25.9452 42.9547 26.8601 40.6443 27.0525V25.2903H38.8378V27.0543C36.5761 26.8628 34.449 25.9614 32.7483 24.528L33.9929 23.2834L32.7157 22.0062L31.4711 23.2508C30.9951 22.6899 30.5724 22.0794 30.2147 21.4218C30.5245 20.9819 30.7097 20.4481 30.7097 19.871C30.7097 17.6517 30.1632 15.5617 29.2139 13.7119C29.6177 12.0382 30.4062 10.5289 31.4765 9.26981ZM5.41935 24.3871C4.87923 24.3871 4.37161 24.5145 3.91097 24.7276C3.71858 24.0303 3.6129 23.3132 3.6129 22.5806H5.41935V24.3871ZM5.9089 20.7742C7.13097 18.5748 9.45045 17.1613 12.0355 17.1613H18.676C21.261 17.1613 23.5805 18.5748 24.8026 20.7742H5.9089ZM25.2903 22.5806H27.0968C27.0968 23.3132 26.9911 24.0303 26.7987 24.7276C26.3381 24.5145 25.8305 24.3871 25.2903 24.3871V22.5806ZM5.41935 29.8064C4.4231 29.8064 3.6129 28.9963 3.6129 28C3.6129 27.0037 4.4231 26.1935 5.41935 26.1935V29.2708C5.41935 29.4506 5.42929 29.6285 5.43923 29.8064H5.41935ZM12.3606 41.6378L14.2285 43.5057L12.4257 46.6606C11.9659 46.0934 11.5333 45.5027 11.153 44.8686L10.3248 42.1084L12.3606 41.6378ZM15.3548 45.1748L17.0068 48.0661C16.4902 48.5674 15.9401 49.0352 15.3566 49.4615C14.7686 49.0325 14.2249 48.5583 13.7074 48.0588L15.3548 45.1748ZM6.63058 39.508C6.86903 39.4123 7.12826 39.4213 7.35948 39.5333C7.59071 39.6453 7.75781 39.8413 7.83097 40.087L9.49923 45.6436C9.63381 46.0952 9.40619 46.5676 8.96994 46.7428L7.83097 47.1981C7.59071 47.2938 7.33148 47.2848 7.10026 47.1719C6.86813 47.059 6.70194 46.8612 6.62877 46.6146L4.7591 40.2559L6.63058 39.508ZM1.80645 50.54C1.80645 48.3668 2.69252 46.3021 4.20903 44.7901L4.89548 47.124C5.11045 47.8547 5.62619 48.4644 6.31084 48.7968C6.68297 48.9774 7.08852 49.0686 7.49587 49.0686C7.83729 49.0686 8.17871 49.0045 8.50116 48.8754L9.64013 48.4201C10.1206 48.2277 10.5145 47.9143 10.8035 47.5295C11.8377 48.86 13.0453 50.0405 14.4335 51.0314L14.4516 51.0449V54.1935H1.80645V50.54ZM28.9032 50.54V54.1935H16.2581V51.0458L16.277 51.0323C19.189 48.9521 21.4001 45.9841 22.5951 42.6178L22.6023 42.6196C26.3119 43.475 28.9032 46.732 28.9032 50.54ZM20.8257 42.2095C20.2286 43.8254 19.367 45.3311 18.2867 46.6643L16.4821 43.5057L18.3499 41.6378L20.8257 42.2095ZM18.5559 36.7423L18.256 36.8715C17.593 37.156 17.1631 37.8072 17.1613 38.5316V40.2721L15.3548 42.0786L13.5484 40.2721V38.5298C13.5466 37.8072 13.1166 37.1569 12.4537 36.8724L12.1529 36.7432C9.16052 35.4606 7.22671 32.5279 7.22581 29.2717V22.5806H23.4839V29.2699C23.483 32.527 21.5483 35.4597 18.5559 36.7423ZM25.2903 29.8064H25.2705C25.2804 29.6285 25.2903 29.4506 25.2903 29.2708V26.1935C26.2866 26.1935 27.0968 27.0037 27.0968 28C27.0968 28.9963 26.2866 29.8064 25.2903 29.8064ZM39.7419 30.7097C35.3306 30.7097 31.2688 28.7434 28.5085 25.3219C28.7497 24.4855 28.8797 23.6248 28.8942 22.7459C31.1613 26.5196 35.2908 28.9032 39.7419 28.9032C46.7148 28.9032 52.3871 23.231 52.3871 16.2581C52.3871 9.28516 46.7148 3.6129 39.7419 3.6129C34.4825 3.6129 29.8046 6.92142 27.9494 11.7085C27.5439 11.1738 27.1076 10.6653 26.6289 10.1974C28.9926 5.08335 34.0688 1.80645 39.7419 1.80645C47.7102 1.80645 54.1935 8.28981 54.1935 16.2581C54.1935 24.2263 47.7102 30.7097 39.7419 30.7097Z" fill="#B58C56"/>
<path d="M39.7419 44.912C39.7419 43.0567 38.2335 41.5483 36.3783 41.5483H35.8788C34.0245 41.5483 32.5161 43.0567 32.5161 44.912V45.1612H34.3226V44.912C34.3226 44.053 35.0208 43.3548 35.8797 43.3548H36.3792C37.2373 43.3548 37.9355 44.053 37.9355 44.912C37.9355 45.3753 37.7304 45.8116 37.3746 46.1087L32.8404 49.8869C32.6353 50.0585 32.5161 50.3123 32.5161 50.5806V51.4838C32.5161 51.9824 32.9199 52.387 33.4193 52.387H38.8387V50.5806H34.8302L38.5316 47.4961C39.3011 46.8548 39.7419 45.9136 39.7419 44.912Z" fill="#B58C56"/>
<path d="M46.0645 42.4517C46.0645 42.0488 45.7971 41.6948 45.4096 41.5837C45.024 41.4744 44.6085 41.6315 44.3953 41.9739L39.8792 49.1997C39.7049 49.4779 39.6958 49.8292 39.8548 50.1164C40.0147 50.4028 40.3173 50.5807 40.6451 50.5807H44.258V52.3872H46.0645V50.5807H47.8709V48.7743H46.0645V42.4517ZM44.258 48.7743H42.2754L44.258 45.6012V48.7743Z" fill="#B58C56"/>
<path d="M52.3872 46.9676C52.0692 46.9676 51.7676 47.0327 51.4839 47.1338V43.3547H49.6775V49.6773V52.387H51.4839V49.6773C51.4839 49.1796 51.8886 48.7741 52.3872 48.7741C52.8857 48.7741 53.2904 49.1796 53.2904 49.6773V52.387H55.0968V49.6773C55.0968 48.1834 53.8811 46.9676 52.3872 46.9676Z" fill="#B58C56"/>
</g>
<defs>
<clipPath id="clip0_10_307">
<rect width="56" height="56" fill="white"/>
</clipPath>
</defs>
</svg>
