<svg width="55" height="55" viewBox="0 0 55 55" fill="none" xmlns="http://www.w3.org/2000/svg">
<mask id="mask0_10_321" style="mask-type:luminance" maskUnits="userSpaceOnUse" x="0" y="0" width="55" height="55">
<path d="M0 3.8147e-06H55V55H0V3.8147e-06Z" fill="white"/>
</mask>
<g mask="url(#mask0_10_321)">
<path d="M53.2812 23.0957H1.71875V16.6504H53.2812V23.0957Z" stroke="#B58C56" stroke-width="2" stroke-miterlimit="10" stroke-linecap="round" stroke-linejoin="round"/>
<path d="M50.0586 53.3887H4.94141V23.0957H50.0586V53.3887Z" stroke="#B58C56" stroke-width="2" stroke-miterlimit="10" stroke-linecap="round" stroke-linejoin="round"/>
<path d="M27.5 36.2012H19.9805V53.3887H27.5V36.2012Z" stroke="#B58C56" stroke-width="2" stroke-miterlimit="10" stroke-linecap="round" stroke-linejoin="round"/>
<path d="M35.0195 36.2012H27.5V53.3887H35.0195V36.2012Z" stroke="#B58C56" stroke-width="2" stroke-miterlimit="10" stroke-linecap="round" stroke-linejoin="round"/>
<path d="M35.0195 46.9434H50.0586" stroke="#B58C56" stroke-width="2" stroke-miterlimit="10" stroke-linecap="round" stroke-linejoin="round"/>
<path d="M19.9805 48.0176H4.94141" stroke="#B58C56" stroke-width="2" stroke-miterlimit="10" stroke-linecap="round" stroke-linejoin="round"/>
</g>
<path d="M41.4648 38.8867H43.6133" stroke="#B58C56" stroke-width="2" stroke-miterlimit="10" stroke-linecap="round" stroke-linejoin="round"/>
<path d="M22.1289 29.6484H32.8711" stroke="#B58C56" stroke-width="2" stroke-miterlimit="10" stroke-linecap="round" stroke-linejoin="round"/>
<path d="M13.5352 38.8867H11.3867" stroke="#B58C56" stroke-width="2" stroke-miterlimit="10" stroke-linecap="round" stroke-linejoin="round"/>
<mask id="mask1_10_321" style="mask-type:luminance" maskUnits="userSpaceOnUse" x="0" y="0" width="55" height="55">
<path d="M0 3.8147e-06H55V55H0V3.8147e-06Z" fill="white"/>
</mask>
<g mask="url(#mask1_10_321)">
<path d="M1.61133 53.3887H53.3887" stroke="#B58C56" stroke-width="2" stroke-miterlimit="10" stroke-linecap="round" stroke-linejoin="round"/>
<path d="M41.4648 16.6504H13.5352V1.61133H41.4648V16.6504Z" stroke="#B58C56" stroke-width="2" stroke-miterlimit="10" stroke-linecap="round" stroke-linejoin="round"/>
<path d="M31.2061 11.7745L32.1501 6.54409C32.1737 6.42152 32.3446 6.41002 32.3843 6.52829L33.9201 11.7337C33.9572 11.8445 34.1143 11.8439 34.1504 11.7325L35.6338 6.52926C35.6722 6.41056 35.8431 6.42023 35.8679 6.54247L36.8679 11.7745" stroke="#B58C56" stroke-miterlimit="10" stroke-linecap="round" stroke-linejoin="round"/>
<path d="M22.3414 6.904C21.9128 6.6145 21.3961 6.44531 20.8398 6.44531C19.3568 6.44531 18.1543 7.64779 18.1543 9.13086C18.1543 10.614 19.3568 11.8164 20.8398 11.8164C22.323 11.8164 23.1582 10.614 23.1582 9.13086H21.5514" stroke="#B58C56" stroke-miterlimit="10" stroke-linecap="round" stroke-linejoin="round"/>
<path d="M25.4692 6.44532L27.1849 9.07275L28.8864 6.45896" stroke="#B58C56" stroke-miterlimit="10" stroke-linecap="round" stroke-linejoin="round"/>
<path d="M27.178 11.8164L27.1846 9.07274" stroke="#B58C56" stroke-miterlimit="10" stroke-linecap="round" stroke-linejoin="round"/>
</g>
</svg>
