<svg width="57" height="57" viewBox="0 0 57 57" fill="none" xmlns="http://www.w3.org/2000/svg">
<mask id="mask0_10_523" style="mask-type:luminance" maskUnits="userSpaceOnUse" x="0" y="0" width="57" height="57">
<path d="M0 3.8147e-06H57V57H0V3.8147e-06Z" fill="white"/>
</mask>
<g mask="url(#mask0_10_523)">
<path d="M55.3301 14.1907C55.3301 7.27563 49.7244 1.66993 42.8093 1.66993H14.1907C7.27563 1.66993 1.66992 7.27563 1.66992 14.1907V42.8093C1.66992 49.7244 7.27563 55.3301 14.1907 55.3301H42.8093C49.7244 55.3301 55.3301 49.7244 55.3301 42.8093V14.1907Z" stroke="#B58C56" stroke-width="2" stroke-miterlimit="10" stroke-linecap="round" stroke-linejoin="round"/>
<path d="M31.0295 37.4176C32.4257 38.8136 32.4257 41.0806 31.0295 42.4766C29.6335 43.8727 27.3665 43.8727 25.9705 42.4766C24.5743 41.0806 24.5743 38.8136 25.9705 37.4176C27.3665 36.0214 29.6335 36.0214 31.0295 37.4176Z" stroke="#B58C56" stroke-width="2" stroke-miterlimit="10" stroke-linecap="round" stroke-linejoin="round"/>
<path d="M31.0296 37.4175C29.6325 36.0205 27.3675 36.0205 25.9705 37.4175C24.5735 38.8146 22.3084 38.8146 20.9113 37.4175C19.5143 36.0205 19.5143 33.7554 20.9113 32.3583C22.924 30.3458 25.6538 29.215 28.5 29.215C31.3463 29.215 34.0761 30.3458 36.0887 32.3583C37.4857 33.7554 37.4857 36.0205 36.0887 37.4175C34.6917 38.8146 32.4267 38.8146 31.0296 37.4175Z" stroke="#B58C56" stroke-width="2" stroke-miterlimit="10" stroke-linecap="round" stroke-linejoin="round"/>
<path d="M36.0886 32.3582C34.0759 30.3456 31.3461 29.2149 28.4999 29.2149C25.6537 29.2149 22.9238 30.3456 20.9112 32.3582C19.5142 33.7553 17.2491 33.7553 15.8521 32.3582C15.1812 31.6874 14.8042 30.7774 14.8042 29.8286C14.8042 28.8799 15.1812 27.97 15.8521 27.299C22.8373 20.3138 34.1625 20.3138 41.1477 27.299C41.8186 27.97 42.1955 28.8799 42.1955 29.8286C42.1955 30.7774 41.8186 31.6874 41.1477 32.3582C39.7507 33.7553 37.4856 33.7553 36.0886 32.3582Z" stroke="#B58C56" stroke-width="2" stroke-miterlimit="10" stroke-linecap="round" stroke-linejoin="round"/>
<path d="M41.1479 27.2991C34.1627 20.3139 22.8374 20.3139 15.8522 27.2991C15.1814 27.97 14.2715 28.3469 13.3228 28.3469C12.3739 28.3469 11.464 27.97 10.7932 27.2991C9.3961 25.902 9.3961 23.6371 10.7932 22.24C20.5724 12.4607 36.4278 12.4607 46.207 22.24C47.604 23.6371 47.604 25.902 46.207 27.2991C45.5361 27.97 44.6262 28.3469 43.6775 28.3469C42.7286 28.3469 41.8187 27.97 41.1479 27.2991Z" stroke="#B58C56" stroke-width="2" stroke-miterlimit="10" stroke-linecap="round" stroke-linejoin="round"/>
</g>
</svg>
