<svg width="57" height="57" viewBox="0 0 57 57" fill="none" xmlns="http://www.w3.org/2000/svg">
<g clip-path="url(#clip0_10_483)">
<mask id="mask0_10_483" style="mask-type:luminance" maskUnits="userSpaceOnUse" x="0" y="0" width="57" height="57">
<path d="M0 3.8147e-06H57V57H0V3.8147e-06Z" fill="white"/>
</mask>
<g mask="url(#mask0_10_483)">
<path d="M43.3167 25.337C40.7082 27.9456 36.4789 27.9456 33.8702 25.337C31.2617 22.7283 31.2617 18.4991 33.8702 15.8905C36.4789 13.2819 40.7082 13.2819 43.3167 15.8905C45.9254 18.4991 45.9254 22.7283 43.3167 25.337Z" stroke="#B58C56" stroke-width="2" stroke-miterlimit="10" stroke-linecap="round" stroke-linejoin="round"/>
<path d="M55.3301 51.9902C50.854 51.9902 50.854 55.3301 46.3781 55.3301C41.9051 55.3301 41.9051 51.9902 37.4322 51.9902C32.963 51.9902 32.963 55.3301 28.494 55.3301C24.0226 55.3301 24.0226 51.9902 19.5511 51.9902C15.0807 51.9902 15.0807 55.3301 10.6105 55.3301C6.14019 55.3301 6.14019 51.9902 1.66992 51.9902" stroke="#B58C56" stroke-width="2" stroke-miterlimit="10" stroke-linecap="round" stroke-linejoin="round"/>
<path d="M55.3301 41.9707C50.854 41.9707 50.854 45.3105 46.3781 45.3105C41.9051 45.3105 41.9051 41.9707 37.4322 41.9707C32.963 41.9707 32.963 45.3105 28.494 45.3105C24.0226 45.3105 24.0226 41.9707 19.5511 41.9707C15.0807 41.9707 15.0807 45.3105 10.6105 45.3105C6.14019 45.3105 6.14019 41.9707 1.66992 41.9707" stroke="#B58C56" stroke-width="2" stroke-miterlimit="10" stroke-linecap="round" stroke-linejoin="round"/>
<path d="M55.3301 31.9512C50.854 31.9512 50.854 35.291 46.3781 35.291C41.9051 35.291 41.9051 31.9512 37.4322 31.9512C32.963 31.9512 32.963 35.291 28.494 35.291C24.0226 35.291 24.0226 31.9512 19.5511 31.9512C15.0807 31.9512 15.0807 35.291 10.6105 35.291C6.14019 35.291 6.14019 31.9512 1.66992 31.9512" stroke="#B58C56" stroke-width="2" stroke-miterlimit="10" stroke-linecap="round" stroke-linejoin="round"/>
<path d="M28.494 35.291C32.9632 35.291 32.9632 31.9512 37.4322 31.9512C40.2389 31.9512 41.2845 33.2662 42.7791 34.2458L26.1383 17.6051C24.3994 15.866 24.3994 13.0464 26.1383 11.3074L30.0744 7.37137C31.3787 6.06716 31.3787 3.95237 30.0744 2.64816C28.7701 1.34384 26.6554 1.34384 25.3512 2.64816L21.4151 6.58428C17.0675 10.9318 17.0675 17.9807 21.4151 22.3283L22.2023 23.1156L10.3942 34.9236L10.7598 35.2892C15.0806 35.2153 15.1313 31.9512 19.551 31.9512C24.0225 31.9512 24.0225 35.291 28.494 35.291Z" stroke="#B58C56" stroke-width="2" stroke-miterlimit="10" stroke-linecap="round" stroke-linejoin="round"/>
</g>
</g>
<defs>
<clipPath id="clip0_10_483">
<rect width="57" height="57" fill="white"/>
</clipPath>
</defs>
</svg>
