<svg width="45" height="46" viewBox="0 0 45 46" fill="none" xmlns="http://www.w3.org/2000/svg">
<g clip-path="url(#clip0_10_588)">
<path d="M22.5 46C10.0588 46 0 35.7176 0 23C0 10.2824 10.0588 0 22.5 0C34.9412 0 45 10.2824 45 23C45 35.7176 34.9412 46 22.5 46ZM22.5 2.70588C11.5147 2.70588 2.64706 11.7706 2.64706 23C2.64706 34.2294 11.5147 43.2941 22.5 43.2941C33.4853 43.2941 42.3529 34.2294 42.3529 23C42.3529 11.7706 33.4853 2.70588 22.5 2.70588Z" fill="#D8BF89" fill-opacity="0.5"/>
<path d="M25.098 32.2527L23.7932 30.9173L31.5285 22.9999L23.7932 15.0825L25.098 13.7471L34.138 22.9999L25.098 32.2527Z" fill="#D8BF89" fill-opacity="0.5"/>
<path d="M10.8621 21.6782H32.8447V24.3219H10.8621V21.6782Z" fill="#D8BF89" fill-opacity="0.5"/>
</g>
<defs>
<clipPath id="clip0_10_588">
<rect width="45" height="46" fill="white"/>
</clipPath>
</defs>
</svg>
