<svg width="45" height="46" viewBox="0 0 45 46" fill="none" xmlns="http://www.w3.org/2000/svg">
<g clip-path="url(#clip0_10_594)">
<path d="M22.5 46C34.9412 46 45 35.7176 45 23C45 10.2824 34.9412 0 22.5 0C10.0588 0 0 10.2824 0 23C0 35.7176 10.0588 46 22.5 46ZM22.5 2.70588C33.4853 2.70588 42.3529 11.7706 42.3529 23C42.3529 34.2294 33.4853 43.2941 22.5 43.2941C11.5147 43.2941 2.64706 34.2294 2.64706 23C2.64706 11.7706 11.5147 2.70588 22.5 2.70588Z" fill="#D8BF89" fill-opacity="0.5"/>
<path d="M19.9019 32.2527L21.2067 30.9173L13.4714 22.9999L21.2067 15.0825L19.9019 13.7471L10.8619 22.9999L19.9019 32.2527Z" fill="#D8BF89" fill-opacity="0.5"/>
<path d="M34.1378 21.6782H12.1551V24.3219H34.1378V21.6782Z" fill="#D8BF89" fill-opacity="0.5"/>
</g>
<defs>
<clipPath id="clip0_10_594">
<rect width="45" height="46" fill="white" transform="matrix(-1 0 0 1 45 0)"/>
</clipPath>
</defs>
</svg>
