<svg width="30" height="30" viewBox="0 0 30 30" fill="none" xmlns="http://www.w3.org/2000/svg">
<circle cx="15" cy="15" r="14.5" fill="#3E567C" stroke="#D8BF89"/>
<path d="M21.9733 10.9998C21.4599 11.2332 20.9066 11.3865 20.3333 11.4598C20.9199 11.1065 21.3733 10.5465 21.5866 9.87317C21.0333 10.2065 20.4199 10.4398 19.7733 10.5732C19.2466 9.99984 18.5066 9.6665 17.6666 9.6665C16.0999 9.6665 14.8199 10.9465 14.8199 12.5265C14.8199 12.7532 14.8466 12.9732 14.8933 13.1798C12.5199 13.0598 10.4066 11.9198 8.99994 10.1932C8.75328 10.6132 8.61328 11.1065 8.61328 11.6265C8.61328 12.6198 9.11328 13.4998 9.88661 13.9998C9.41328 13.9998 8.97328 13.8665 8.58661 13.6665V13.6865C8.58661 15.0732 9.57328 16.2332 10.8799 16.4932C10.4605 16.6085 10.02 16.6244 9.59328 16.5398C9.77435 17.1082 10.129 17.6054 10.6073 17.9618C11.0856 18.3181 11.6636 18.5156 12.2599 18.5265C11.2491 19.3268 9.99595 19.7594 8.70661 19.7532C8.47994 19.7532 8.25328 19.7398 8.02661 19.7132C9.29328 20.5265 10.7999 20.9998 12.4133 20.9998C17.6666 20.9998 20.5533 16.6398 20.5533 12.8598C20.5533 12.7332 20.5533 12.6132 20.5466 12.4865C21.1066 12.0865 21.5866 11.5798 21.9733 10.9998Z" fill="#D8BF89"/>
</svg>
