<svg width="30" height="30" viewBox="0 0 30 30" fill="none" xmlns="http://www.w3.org/2000/svg">
<circle cx="15" cy="15" r="14.5" fill="#3E567C" stroke="#D8BF89"/>
<path d="M13.6666 17.0002L17.1266 15.0002L13.6666 13.0002V17.0002ZM21.3733 11.7802C21.4599 12.0935 21.5199 12.5135 21.5599 13.0468C21.6066 13.5802 21.6266 14.0402 21.6266 14.4402L21.6666 15.0002C21.6666 16.4602 21.5599 17.5335 21.3733 18.2202C21.2066 18.8202 20.8199 19.2068 20.2199 19.3735C19.9066 19.4602 19.3333 19.5202 18.4533 19.5602C17.5866 19.6068 16.7933 19.6268 16.0599 19.6268L14.9999 19.6668C12.2066 19.6668 10.4666 19.5602 9.77992 19.3735C9.17992 19.2068 8.79325 18.8202 8.62659 18.2202C8.53992 17.9068 8.47992 17.4868 8.43992 16.9535C8.39325 16.4202 8.37325 15.9602 8.37325 15.5602L8.33325 15.0002C8.33325 13.5402 8.43992 12.4668 8.62659 11.7802C8.79325 11.1802 9.17992 10.7935 9.77992 10.6268C10.0933 10.5402 10.6666 10.4802 11.5466 10.4402C12.4133 10.3935 13.2066 10.3735 13.9399 10.3735L14.9999 10.3335C17.7933 10.3335 19.5333 10.4402 20.2199 10.6268C20.8199 10.7935 21.2066 11.1802 21.3733 11.7802Z" fill="#D8BF89"/>
</svg>
