<svg width="30" height="30" viewBox="0 0 30 30" fill="none" xmlns="http://www.w3.org/2000/svg">
<circle cx="15" cy="15" r="14.5" fill="#3E567C" stroke="#D8BF89"/>
<path d="M14.9999 13.3468C14.6729 13.3468 14.3533 13.4438 14.0814 13.6255C13.8095 13.8071 13.5976 14.0654 13.4724 14.3675C13.3473 14.6696 13.3146 15.002 13.3784 15.3227C13.4421 15.6434 13.5996 15.938 13.8308 16.1692C14.0621 16.4005 14.3567 16.5579 14.6774 16.6217C14.9981 16.6855 15.3305 16.6528 15.6326 16.5276C15.9347 16.4025 16.1929 16.1906 16.3746 15.9187C16.5563 15.6468 16.6533 15.3272 16.6533 15.0002C16.6533 14.783 16.6105 14.5681 16.5274 14.3675C16.4443 14.1669 16.3225 13.9846 16.169 13.8311C16.0155 13.6776 15.8332 13.5558 15.6326 13.4727C15.432 13.3896 15.217 13.3468 14.9999 13.3468ZM21.6199 11.7135C21.6168 11.1986 21.522 10.6884 21.3399 10.2068C21.2061 9.85434 20.9991 9.53423 20.7325 9.26762C20.4659 9.00101 20.1457 8.79397 19.7933 8.66016C19.3117 8.47806 18.8015 8.38325 18.2866 8.38016C17.4266 8.3335 17.1733 8.3335 14.9999 8.3335C12.8266 8.3335 12.5733 8.3335 11.7133 8.38016C11.1984 8.38325 10.6882 8.47806 10.2066 8.66016C9.85409 8.79397 9.53398 9.00101 9.26738 9.26762C9.00077 9.53423 8.79373 9.85434 8.65992 10.2068C8.47782 10.6884 8.383 11.1986 8.37992 11.7135C8.33325 12.5735 8.33325 12.8268 8.33325 15.0002C8.33325 17.1735 8.33325 17.4268 8.37992 18.2868C8.38761 18.8034 8.48226 19.315 8.65992 19.8002C8.79239 20.1514 8.99935 20.4698 9.26659 20.7335C9.53218 21.0015 9.85294 21.2085 10.2066 21.3402C10.6882 21.5223 11.1984 21.6171 11.7133 21.6202C12.5733 21.6668 12.8266 21.6668 14.9999 21.6668C17.1733 21.6668 17.4266 21.6668 18.2866 21.6202C18.8015 21.6171 19.3117 21.5223 19.7933 21.3402C20.1469 21.2085 20.4677 21.0015 20.7333 20.7335C21.0005 20.4698 21.2074 20.1514 21.3399 19.8002C21.5214 19.3161 21.6162 18.8038 21.6199 18.2868C21.6666 17.4268 21.6666 17.1735 21.6666 15.0002C21.6666 12.8268 21.6666 12.5735 21.6199 11.7135ZM19.9266 17.0468C19.9055 17.4583 19.8177 17.8636 19.6666 18.2468C19.5372 18.5666 19.3448 18.8571 19.1008 19.1011C18.8569 19.345 18.5664 19.5374 18.2466 19.6668C17.8597 19.8096 17.4521 19.8884 17.0399 19.9002H12.9599C12.5477 19.8884 12.1401 19.8096 11.7533 19.6668C11.4225 19.5442 11.124 19.3482 10.8799 19.0935C10.6382 18.8545 10.4516 18.5655 10.3333 18.2468C10.1904 17.8602 10.1138 17.4523 10.1066 17.0402V12.9602C10.1138 12.5481 10.1904 12.1401 10.3333 11.7535C10.4559 11.4228 10.6519 11.1242 10.9066 10.8802C11.1469 10.6401 11.4355 10.4537 11.7533 10.3335C12.1401 10.1908 12.5477 10.1119 12.9599 10.1002H17.0399C17.4521 10.1119 17.8597 10.1908 18.2466 10.3335C18.5773 10.4561 18.8759 10.6522 19.1199 10.9068C19.3616 11.1459 19.5482 11.4348 19.6666 11.7535C19.8093 12.1404 19.8881 12.5479 19.8999 12.9602V15.0002C19.8999 16.3735 19.9466 16.5135 19.9266 17.0402V17.0468ZM18.8599 12.0868C18.7805 11.8715 18.6554 11.6759 18.4931 11.5136C18.3308 11.3514 18.1353 11.2262 17.9199 11.1468C17.6242 11.0443 17.3128 10.9947 16.9999 11.0002H12.9999C12.6854 11.0032 12.374 11.0619 12.0799 11.1735C11.8679 11.2493 11.6744 11.3693 11.5123 11.5256C11.3502 11.682 11.2233 11.871 11.1399 12.0802C11.0435 12.3772 10.9962 12.6879 10.9999 13.0002V17.0002C11.0069 17.3143 11.0655 17.6251 11.1733 17.9202C11.2526 18.1355 11.3778 18.3311 11.5401 18.4934C11.7023 18.6556 11.8979 18.7808 12.1133 18.8602C12.3978 18.9644 12.6971 19.0229 12.9999 19.0335H16.9999C17.3144 19.0304 17.6259 18.9717 17.9199 18.8602C18.1353 18.7808 18.3308 18.6556 18.4931 18.4934C18.6554 18.3311 18.7805 18.1355 18.8599 17.9202C18.9715 17.6261 19.0302 17.3147 19.0333 17.0002V13.0002C19.0331 12.6854 18.9744 12.3734 18.8599 12.0802V12.0868ZM14.9999 17.5468C14.6658 17.5468 14.335 17.4809 14.0264 17.3528C13.7178 17.2248 13.4375 17.0371 13.2015 16.8005C12.9656 16.564 12.7786 16.2832 12.6513 15.9742C12.5241 15.6653 12.459 15.3343 12.4599 15.0002C12.4599 14.4962 12.6094 14.0036 12.8896 13.5846C13.1697 13.1657 13.5678 12.8393 14.0336 12.6467C14.4993 12.4542 15.0117 12.4041 15.5059 12.5029C16.0001 12.6017 16.4538 12.8449 16.8097 13.2018C17.1656 13.5586 17.4076 14.013 17.5051 14.5074C17.6026 15.0019 17.5513 15.5141 17.3575 15.9794C17.1637 16.4446 16.8363 16.8419 16.4166 17.1209C15.9969 17.3999 15.5039 17.5481 14.9999 17.5468ZM17.6666 12.9535C17.5192 12.9379 17.3828 12.8683 17.2837 12.7581C17.1846 12.648 17.1297 12.505 17.1297 12.3568C17.1297 12.2086 17.1846 12.0657 17.2837 11.9555C17.3828 11.8453 17.5192 11.7758 17.6666 11.7602C17.814 11.7758 17.9503 11.8453 18.0495 11.9555C18.1486 12.0657 18.2034 12.2086 18.2034 12.3568C18.2034 12.505 18.1486 12.648 18.0495 12.7581C17.9503 12.8683 17.814 12.9379 17.6666 12.9535Z" fill="#D8BF89"/>
</svg>
